<svg width="474" height="474" viewBox="0 0 474 474" fill="none" xmlns="http://www.w3.org/2000/svg">
<g clip-path="url(#clip0_6548_18958)">
<path d="M236.662 473.327C367.367 473.327 473.325 367.369 473.325 236.663C473.325 105.958 367.367 0 236.662 0C105.956 0 -0.00195312 105.958 -0.00195312 236.663C-0.00195312 367.369 105.956 473.327 236.662 473.327Z" fill="#D0E5FF"/>
<path d="M407.726 191.765H179.939V40.5614C179.939 40.4191 180.056 40.3027 180.198 40.3027C180.34 40.3027 180.457 40.4191 180.457 40.5614V191.247H407.726C407.868 191.247 407.985 191.364 407.985 191.506C407.985 191.648 407.868 191.765 407.726 191.765Z" fill="#0076B2"/>
<path d="M353.084 73.1433L326.066 89.4863L326.334 89.9289L353.352 73.5859L353.084 73.1433Z" fill="#0093DF"/>
<path d="M272.69 28.8471L272.256 29.1289L308.868 85.4851L309.302 85.2033L272.69 28.8471Z" fill="#0093DF"/>
<path d="M256.349 26.3056L227.898 48.5176L228.217 48.9253L256.667 26.7133L256.349 26.3056Z" fill="#0093DF"/>
<path d="M218.84 68.2784C212.229 68.2784 206.852 62.8416 206.852 56.1607C206.852 49.4798 212.229 44.043 218.84 44.043C225.451 44.043 230.828 49.4798 230.828 56.1607C230.828 62.8416 225.451 68.2784 218.84 68.2784ZM218.84 44.5629C212.516 44.5629 207.369 49.7669 207.369 56.1632C207.369 62.5596 212.516 67.7636 218.84 67.7636C225.164 67.7636 230.311 62.5596 230.311 56.1632C230.311 49.7669 225.164 44.5629 218.84 44.5629Z" fill="#0093DF"/>
<path d="M266.133 31.3877C259.522 31.3877 254.145 25.9509 254.145 19.27C254.145 12.5891 259.522 7.15234 266.133 7.15234C272.744 7.15234 278.121 12.5866 278.121 19.27C278.121 25.9535 272.744 31.3877 266.133 31.3877ZM266.133 7.67223C259.806 7.67223 254.662 12.8762 254.662 19.2726C254.662 25.669 259.809 30.873 266.133 30.873C272.457 30.873 277.604 25.669 277.604 19.2726C277.604 12.8762 272.457 7.67223 266.133 7.67223Z" fill="#0093DF"/>
<path d="M315.859 107.475C309.248 107.475 303.871 102.04 303.871 95.3569C303.871 88.6735 309.248 83.2393 315.859 83.2393C322.471 83.2393 327.848 88.6761 327.848 95.3569C327.848 102.038 322.471 107.475 315.859 107.475ZM315.859 83.7591C309.533 83.7591 304.388 88.9631 304.388 95.3595C304.388 101.756 309.535 106.96 315.859 106.96C322.183 106.96 327.331 101.756 327.331 95.3595C327.331 88.9631 322.183 83.7591 315.859 83.7591Z" fill="#0093DF"/>
<path d="M363.527 79.8174C356.916 79.8174 351.539 74.3832 351.539 67.6997C351.539 61.0162 356.916 55.582 363.527 55.582C370.138 55.582 375.516 61.0188 375.516 67.6997C375.516 74.3806 370.138 79.8174 363.527 79.8174ZM363.527 56.1019C357.201 56.1019 352.056 61.3059 352.056 67.7023C352.056 74.0987 357.203 79.3027 363.527 79.3027C369.851 79.3027 374.998 74.0987 374.998 67.7023C374.998 61.3059 369.851 56.1019 363.527 56.1019Z" fill="#0093DF"/>
<path d="M234.153 86.8594H204.98V167.723H234.153V86.8594Z" fill="#0093DF"/>
<path d="M282.296 70.751H253.123V167.724H282.296V70.751Z" fill="#0093DF"/>
<path d="M330.439 115.466H301.266V167.723H330.439V115.466Z" fill="#0093DF"/>
<path d="M378.581 100.459H349.408V167.721H378.581V100.459Z" fill="#0093DF"/>
<path d="M411.939 183.242H72.5684V204.635H411.939V183.242Z" fill="white"/>
<path d="M411.94 424.543H72.5692C72.4269 424.543 72.3105 424.427 72.3105 424.285V183.242C72.3105 183.172 72.3364 183.108 72.3856 183.058C72.4347 183.009 72.4994 182.983 72.5692 182.983H411.94C412.009 182.983 412.074 183.009 412.123 183.058C412.172 183.108 412.198 183.172 412.198 183.242V424.285C412.198 424.427 412.082 424.543 411.94 424.543ZM72.8278 424.026H411.681V183.501H72.8278V424.026Z" fill="white"/>
<path d="M91.5233 195.196C92.1405 192.581 90.5209 189.961 87.9058 189.344C85.2907 188.726 82.6704 190.346 82.0531 192.961C81.4359 195.576 83.0555 198.197 85.6706 198.814C88.2857 199.431 90.9061 197.811 91.5233 195.196Z" fill="#F2E6DC"/>
<path d="M105.953 197.526C107.853 195.626 107.853 192.546 105.953 190.646C104.053 188.746 100.973 188.746 99.073 190.646C97.173 192.546 97.173 195.626 99.073 197.526C100.973 199.426 104.053 199.426 105.953 197.526Z" fill="#F2E6DC"/>
<path d="M121.67 197.528C123.57 195.628 123.57 192.548 121.67 190.648C119.77 188.748 116.69 188.748 114.79 190.648C112.89 192.548 112.89 195.628 114.79 197.528C116.69 199.428 119.77 199.428 121.67 197.528Z" fill="#F2E6DC"/>
<path d="M429.79 369.427L405.678 353.458L444.939 357.92C457.633 346.172 465.664 333.374 465.664 333.374C465.664 333.374 459.604 330.353 450.306 327.428L423.013 347.282L434.893 323.613C426.782 322.162 417.781 321.468 408.803 322.557C407.541 322.71 406.31 322.904 405.109 323.134L386.06 358.466L386.489 331.085C375.781 339.049 371.278 350.799 373.888 359.847C377.892 373.726 399.238 383.624 423.298 372.815C425.519 371.817 427.684 370.676 429.787 369.427H429.79Z" fill="#0093DF"/>
<path d="M450.304 327.43C445.817 326.018 440.574 324.629 434.891 323.612L423.012 347.281L450.304 327.427V327.43Z" fill="#004A73"/>
<path d="M386.062 358.465L405.112 323.134C397.653 324.562 391.417 327.422 386.494 331.085L386.065 358.465H386.062Z" fill="#004A73"/>
<path d="M429.789 369.427C435.327 366.137 440.427 362.097 444.938 357.92L405.678 353.458L429.789 369.427Z" fill="#004A73"/>
<path d="M351.636 391.818C351.589 391.818 351.543 391.805 351.499 391.779C351.377 391.704 351.341 391.544 351.416 391.422C359.351 378.705 370.178 367.779 382.728 359.826C393.12 353.241 404.55 348.676 416.696 346.257C416.839 346.229 416.973 346.319 417.001 346.462C417.03 346.601 416.939 346.738 416.797 346.767C404.713 349.172 393.343 353.714 383.005 360.266C370.522 368.178 359.752 379.046 351.856 391.697C351.806 391.774 351.721 391.818 351.636 391.818Z" fill="#004A73"/>
<path d="M423.357 321.407L394.15 317.626L434.867 301.941C443.842 283.494 447.815 266.385 447.815 266.385C447.815 266.385 440.79 266.442 430.552 268.263L409.54 302.443L413.911 272.326C405.332 275.029 396.1 278.96 387.462 284.684C386.246 285.489 385.077 286.319 383.949 287.17L376.107 332.801L367.84 304.815C359.654 318.402 358.876 332.635 364.364 340.467C372.781 352.479 397.293 351.529 417.941 328.184C419.847 326.029 421.652 323.756 423.359 321.407H423.357Z" fill="#004A73"/>
<path d="M430.552 268.263C425.609 269.142 419.921 270.433 413.91 272.326L409.539 302.443L430.552 268.263Z" fill="#0093DF"/>
<path d="M383.949 287.17C376.935 292.457 371.604 298.569 367.838 304.818L376.104 332.803L383.947 287.173L383.949 287.17Z" fill="#0093DF"/>
<path d="M423.357 321.407C427.855 315.22 431.678 308.498 434.867 301.941L394.15 317.626L423.357 321.407Z" fill="#0093DF"/>
<path d="M352.16 384.336C352.142 384.336 352.122 384.336 352.104 384.328C351.964 384.297 351.876 384.158 351.91 384.018C355.81 367.048 363.171 350.409 373.196 335.899C381.502 323.879 391.483 313.376 402.863 304.677C402.977 304.592 403.14 304.613 403.225 304.727C403.311 304.84 403.29 305.003 403.176 305.089C391.837 313.753 381.892 324.218 373.62 336.191C363.631 350.65 356.299 367.226 352.411 384.132C352.383 384.251 352.277 384.333 352.16 384.333V384.336Z" fill="#004A73"/>
<path d="M134.19 412.518L133.95 412.425L32.7148 373.638L32.808 373.398L49.7469 329.189L49.9874 329.283L151.222 368.07L151.129 368.31L134.19 412.518ZM33.3822 373.341L133.893 411.851L150.553 368.37L50.0417 329.859L33.3822 373.341Z" fill="#363E44"/>
<path d="M134.042 412.185L123.264 415.936L51.6162 388.485L46.7898 378.755L42.9023 368.337L48.515 353.684L58.3695 348.532L68.4594 344.518L140.11 371.971L145.622 381.962L149.51 392.381L143.897 407.03L134.042 412.185Z" fill="#D3BBA3"/>
<path d="M107.321 391.477C113.461 385.337 113.461 375.383 107.321 369.244C101.182 363.105 91.2281 363.105 85.0888 369.244C78.9495 375.383 78.9495 385.337 85.0888 391.477C91.2282 397.616 101.182 397.616 107.321 391.477Z" fill="#E6D0BE"/>
<path d="M48.5156 353.684C56.5311 356.539 65.3976 352.502 68.46 344.517L54.1309 339.026L48.5156 353.684Z" fill="#E6D0BE"/>
<path d="M42.9024 368.337L37.2871 382.995L51.6162 388.486C54.6735 380.499 50.7731 371.57 42.9024 368.34V368.337Z" fill="#E6D0BE"/>
<path d="M149.165 392.269C149.279 392.313 149.395 392.342 149.509 392.381L155.124 377.723L140.11 371.971C137.006 380.077 141.062 389.163 149.168 392.269H149.165Z" fill="#E6D0BE"/>
<path d="M138.279 421.687L143.894 407.03C143.783 406.983 143.677 406.926 143.563 406.885C135.457 403.779 126.371 407.832 123.262 415.935L138.276 421.687H138.279Z" fill="#E6D0BE"/>
<path d="M123.583 424.214L123.537 424.196L41.1934 392.646L41.2865 392.406L58.2254 348.197L58.4659 348.29L159.701 387.077L159.608 387.318L145.636 423.787H145.462L123.586 424.212L123.583 424.214ZM41.8607 392.349L123.674 423.694L145.274 423.278L159.029 387.375L58.5176 348.865L41.8581 392.346L41.8607 392.349Z" fill="white"/>
<path d="M32.9676 231.537L62.1742 227.756L21.4577 212.071C12.4826 193.624 8.50977 176.515 8.50977 176.515C8.50977 176.515 15.5347 176.572 25.772 178.392L46.7846 212.573L42.4134 182.456C50.9928 185.159 60.224 189.09 68.8628 194.814C70.0785 195.618 71.2476 196.449 72.3753 197.3L80.2175 242.93L88.4839 214.945C96.6702 228.531 97.4487 242.765 91.9602 250.597C83.5437 262.608 59.0316 261.659 38.3837 238.314C36.4774 236.159 34.6721 233.885 32.965 231.537H32.9676Z" fill="#0093DF"/>
<path d="M25.7715 178.393C30.7143 179.272 36.4019 180.563 42.4129 182.456L46.7841 212.573L25.7715 178.393Z" fill="#004A73"/>
<path d="M72.375 197.3C79.3896 202.587 84.7203 208.698 88.4862 214.947L80.2198 242.933L72.3776 197.302L72.375 197.3Z" fill="#004A73"/>
<path d="M32.9669 231.537C28.469 225.35 24.6462 218.628 21.457 212.071L62.1735 227.756L32.9669 231.537Z" fill="#004A73"/>
<path d="M104.16 294.466C104.041 294.466 103.935 294.386 103.909 294.264C100.022 277.359 92.6893 260.78 82.7003 246.324C74.4261 234.351 64.4837 223.886 53.1445 215.221C53.0307 215.134 53.01 214.973 53.0954 214.859C53.1833 214.746 53.3437 214.725 53.4575 214.81C64.8406 223.509 74.8219 234.012 83.1245 246.032C93.1497 260.542 100.511 277.183 104.411 294.151C104.442 294.29 104.357 294.427 104.217 294.461C104.197 294.466 104.178 294.469 104.16 294.469V294.466Z" fill="#0093DF"/>
<path d="M114.774 116.994L77.7845 146.555C61.4586 126.127 64.7848 96.3311 85.2128 80.0052C105.641 63.6793 135.437 67.0055 151.763 87.4335L114.774 116.994Z" fill="#0093DF"/>
<path d="M114.775 122.054L158.869 139.308C149.34 163.663 121.872 175.679 97.5201 166.148C89.4114 162.975 83.2194 158.417 77.7852 151.615L114.775 122.054Z" fill="#C0DCFF"/>
<path d="M162.807 136.691L118.053 119.18L118.402 118.901L155.593 89.1797L155.753 89.3814C166.658 103.028 169.263 120.184 162.897 136.453L162.802 136.693L162.807 136.691ZM119.077 119.025L162.514 136.021C168.66 120.083 166.112 103.302 155.515 89.9065L119.077 119.025Z" fill="#0076B2"/>
<path d="M302.689 243.725C349.101 286.334 368.768 315.324 351.206 331.575C341.018 341.002 305.847 327.819 267.445 296.14C278.5 279.578 288.872 263.465 302.689 243.725Z" fill="#84524D"/>
<path d="M301.984 297.38C301.984 297.38 301.984 297.378 301.984 297.375C339.726 254.631 365.684 223.583 374.074 214.31C374.954 213.34 376.495 211.618 379.033 210.009C388.432 204.047 396.409 209.168 409.152 207.407C423.611 205.41 430.623 196.099 433.393 198.595C435.32 200.33 433.664 204.588 427.397 211.333C432.746 206.755 440.27 200.863 442.792 203.825C445.521 207.402 437.492 215.363 432.4 219.941C438.563 214.398 443.498 213.296 444.491 215.298C446.056 218.451 442.277 223.862 433.848 230.869C441.02 227.656 443.239 227.946 443.687 229.93C444.504 233.554 437.464 239.184 430.478 243.209C422.612 247.741 414.943 248.524 410.094 248.904C410.094 248.904 410.094 248.904 410.091 248.904C386.761 281.582 371.801 302.626 353.496 329.401C349.751 334.879 342.116 335.973 336.979 331.77C323.092 320.41 315.477 313.768 301.979 297.37L301.984 297.38Z" fill="#84524D"/>
<path d="M302.41 297.15C302.348 297.15 302.288 297.129 302.239 297.085C302.133 296.99 302.123 296.827 302.216 296.721C310.537 287.296 318.785 277.873 327.434 267.912C327.527 267.804 327.693 267.793 327.799 267.887C327.907 267.98 327.918 268.143 327.825 268.251C319.173 278.212 310.922 287.637 302.604 297.065C302.552 297.122 302.482 297.153 302.41 297.153V297.15Z" fill="#363E44"/>
<path d="M391.456 235.207C391.402 235.207 391.345 235.189 391.298 235.153C391.184 235.065 391.164 234.902 391.252 234.791C392.842 232.732 395.654 229.967 400.022 228.472C406.204 226.356 411.641 228.187 413.692 229.072C413.824 229.129 413.883 229.281 413.827 229.411C413.77 229.543 413.617 229.602 413.488 229.545C411.491 228.684 406.202 226.902 400.191 228.958C395.944 230.412 393.21 233.104 391.66 235.104C391.609 235.168 391.534 235.204 391.456 235.204V235.207Z" fill="#363E44"/>
<path d="M397.84 211.752C406.688 200.336 407.459 194.345 405.607 193C402.49 190.74 390.947 197.392 375.914 212.448C382.041 212.803 391.715 211.398 397.842 211.752H397.84Z" fill="#84524D"/>
<path d="M400.699 208.511C400.699 208.511 400.691 208.511 400.689 208.511C398.951 208.434 397.303 208.289 395.71 208.149C392.353 207.855 389.179 207.575 386.091 208.049C385.946 208.072 385.816 207.974 385.796 207.831C385.775 207.689 385.871 207.557 386.013 207.536C389.163 207.055 392.365 207.337 395.756 207.635C397.344 207.774 398.987 207.919 400.712 207.994C400.854 207.999 400.966 208.121 400.96 208.263C400.955 208.403 400.839 208.511 400.702 208.511H400.699Z" fill="#363E44"/>
<path d="M415.213 216.522C415.089 216.522 414.98 216.434 414.959 216.31C414.934 216.17 415.027 216.035 415.169 216.01C416.884 215.702 418.578 215.234 420.2 214.618C422.556 213.726 424.791 212.515 426.839 211.023C426.956 210.94 427.116 210.963 427.201 211.08C427.287 211.196 427.261 211.357 427.144 211.442C425.057 212.963 422.784 214.194 420.383 215.102C418.731 215.728 417.005 216.206 415.259 216.519C415.244 216.522 415.228 216.524 415.213 216.524V216.522Z" fill="#363E44"/>
<path d="M420.988 224.385C420.864 224.385 420.755 224.297 420.735 224.173C420.709 224.033 420.802 223.899 420.944 223.873C422.659 223.565 424.353 223.097 425.975 222.481C428.331 221.589 430.566 220.379 432.614 218.886C432.731 218.803 432.891 218.827 432.977 218.943C433.062 219.059 433.036 219.22 432.92 219.305C430.832 220.826 428.559 222.057 426.159 222.965C424.506 223.591 422.781 224.069 421.035 224.382C421.019 224.385 421.004 224.388 420.988 224.388V224.385Z" fill="#363E44"/>
<path d="M421.863 236.223C421.739 236.223 421.63 236.135 421.61 236.011C421.584 235.871 421.677 235.737 421.819 235.711C423.534 235.403 425.228 234.935 426.85 234.319C429.206 233.427 431.441 232.216 433.489 230.724C433.606 230.641 433.766 230.665 433.852 230.781C433.937 230.897 433.911 231.058 433.795 231.143C431.707 232.664 429.434 233.895 427.034 234.803C425.381 235.429 423.658 235.907 421.91 236.22C421.894 236.223 421.879 236.226 421.863 236.226V236.223Z" fill="#363E44"/>
<path d="M378.464 341.183L289.647 413.47C286.46 416.065 281.84 415.666 279.329 412.578L259.522 388.242L258.366 377.73L247.588 373.576L241.504 366.102C238.993 363.016 239.541 358.412 242.728 355.818L331.545 283.531C334.732 280.936 339.351 281.335 341.863 284.423L347.946 291.898L349.125 301.83L359.883 306.563L379.69 330.899C382.201 333.985 381.653 338.589 378.466 341.183H378.464Z" fill="white"/>
<path d="M347.941 291.907L247.58 373.584L259.516 388.251L359.877 306.573L347.941 291.907Z" fill="#D3BBA3"/>
<path d="M319.583 423.488C319.583 423.488 300.013 317.553 216.387 315.764C131.452 313.945 113.191 423.488 113.191 423.488H319.583Z" fill="#0093DF"/>
<path d="M298.29 379.23C289.633 379.23 278.739 377.275 268.618 369.844C258.342 362.299 253.399 352.478 251.061 345.564C251.014 345.43 251.087 345.282 251.224 345.236C251.358 345.189 251.506 345.262 251.552 345.399C253.867 352.24 258.758 361.963 268.926 369.425C281.191 378.431 294.61 379.308 303.709 378.457C303.851 378.441 303.978 378.547 303.991 378.689C304.004 378.832 303.9 378.958 303.758 378.971C302.072 379.129 300.238 379.227 298.293 379.227L298.29 379.23Z" fill="#363E44"/>
<path d="M139.831 228.183C111.78 238.247 29.0515 262.332 39.5474 296.955C48.2277 325.592 127.762 298.579 156.263 290.393C150.784 269.657 145.309 248.921 139.831 228.185V228.183Z" fill="#84524D"/>
<path d="M325.519 237.339C307.913 229.199 280.592 219.859 252.947 215.625C186.2 205.401 132.021 224.717 105.885 236.255C112.056 256.357 118.227 287.284 124.399 307.386C134.098 307.034 127.56 306.68 137.256 306.328C131.023 326.953 128.793 337.355 125.076 349.248C186.265 349.072 240.762 348.682 301.948 348.506C296.747 327.697 293.03 312.091 290.255 300.438C298.738 285.786 311.125 263.739 325.514 237.341L325.519 237.339Z" fill="#F7F1EB"/>
<path d="M215.684 266.449C239.648 266.449 259.075 254.169 259.075 239.02C259.075 223.871 239.648 211.59 215.684 211.59C191.72 211.59 172.293 223.871 172.293 239.02C172.293 254.169 191.72 266.449 215.684 266.449Z" fill="#84524D"/>
<path d="M246.266 148.389C248.46 148.389 250.239 146.61 250.239 144.416C250.239 142.222 248.46 140.443 246.266 140.443C244.072 140.443 242.293 142.222 242.293 144.416C242.293 146.61 244.072 148.389 246.266 148.389Z" fill="#363E44"/>
<path d="M221.945 132.552C223.3 132.42 236.287 131.357 244.108 140.239C249.93 146.847 250.629 155.328 249.648 169.733C248.495 186.695 245.438 196.673 240.554 200.02C232.839 205.31 209.721 193.479 201.028 178.669C194.753 167.979 195.469 154.209 202.101 143.635C208.715 133.09 221.078 132.637 221.942 132.552H221.945Z" fill="#84524D"/>
<path d="M215.029 228.674H216.281C223.493 228.674 229.34 222.827 229.34 215.615V170.527C229.34 163.315 223.493 157.468 216.281 157.468H215.029C207.816 157.468 201.97 163.315 201.97 170.527V215.615C201.97 222.827 207.816 228.674 215.029 228.674Z" fill="#84524D"/>
<path d="M229.029 200.763C229.003 200.763 228.975 200.757 228.949 200.75C223.566 199.006 217.806 196.073 213.538 192.907C213.425 192.822 213.399 192.662 213.484 192.545C213.569 192.431 213.732 192.406 213.846 192.491C218.073 195.626 223.776 198.528 229.109 200.256C229.246 200.3 229.319 200.444 229.275 200.581C229.238 200.69 229.138 200.76 229.029 200.76V200.763Z" fill="#363E44"/>
<path d="M230.854 207.768H200.59V213.176H230.854V207.768Z" fill="#F7F1EB"/>
<path d="M201.94 171.883C203.849 169.974 203.849 166.879 201.94 164.97C200.031 163.061 196.936 163.061 195.027 164.97C193.118 166.879 193.118 169.974 195.027 171.883C196.936 173.792 200.031 173.792 201.94 171.883Z" fill="#363E44"/>
<path d="M211.519 166.335C212.267 163.163 210.303 159.986 207.132 159.237C203.961 158.489 200.783 160.453 200.035 163.624C199.286 166.795 201.25 169.973 204.422 170.721C207.593 171.47 210.77 169.506 211.519 166.335Z" fill="#363E44"/>
<path d="M236.019 142.557C238.823 142.557 241.096 140.284 241.096 137.48C241.096 134.676 238.823 132.402 236.019 132.402C233.215 132.402 230.941 134.676 230.941 137.48C230.941 140.284 233.215 142.557 236.019 142.557Z" fill="#363E44"/>
<path d="M228.488 142.856C231.118 142.856 233.25 140.725 233.25 138.095C233.25 135.465 231.118 133.333 228.488 133.333C225.858 133.333 223.727 135.465 223.727 138.095C223.727 140.725 225.858 142.856 228.488 142.856Z" fill="#363E44"/>
<path d="M222.854 145.26C225.104 144.328 226.173 141.748 225.24 139.498C224.308 137.248 221.729 136.179 219.479 137.111C217.228 138.043 216.16 140.623 217.092 142.873C218.024 145.123 220.604 146.192 222.854 145.26Z" fill="#363E44"/>
<path d="M242.946 143.069C245.296 143.069 247.201 141.164 247.201 138.814C247.201 136.464 245.296 134.56 242.946 134.56C240.596 134.56 238.691 136.464 238.691 138.814C238.691 141.164 240.596 143.069 242.946 143.069Z" fill="#363E44"/>
<path d="M236.321 139.629C239.126 139.629 241.399 137.356 241.399 134.552C241.399 131.748 239.126 129.475 236.321 129.475C233.517 129.475 231.244 131.748 231.244 134.552C231.244 137.356 233.517 139.629 236.321 139.629Z" fill="#363E44"/>
<path d="M229.132 137.785C232.175 137.785 234.641 135.318 234.641 132.276C234.641 129.233 232.175 126.767 229.132 126.767C226.09 126.767 223.623 129.233 223.623 132.276C223.623 135.318 226.09 137.785 229.132 137.785Z" fill="#363E44"/>
<path d="M220.538 138.305C223.845 138.305 226.526 135.624 226.526 132.317C226.526 129.01 223.845 126.329 220.538 126.329C217.232 126.329 214.551 129.01 214.551 132.317C214.551 135.624 217.232 138.305 220.538 138.305Z" fill="#363E44"/>
<path d="M212.041 140.159C215.301 140.159 217.943 137.517 217.943 134.257C217.943 130.997 215.301 128.354 212.041 128.354C208.781 128.354 206.139 130.997 206.139 134.257C206.139 137.517 208.781 140.159 212.041 140.159Z" fill="#363E44"/>
<path d="M206.48 144.259C209.831 144.259 212.548 141.542 212.548 138.191C212.548 134.84 209.831 132.123 206.48 132.123C203.129 132.123 200.412 134.84 200.412 138.191C200.412 141.542 203.129 144.259 206.48 144.259Z" fill="#363E44"/>
<path d="M201.726 149.214C204.53 149.214 206.803 146.941 206.803 144.137C206.803 141.333 204.53 139.06 201.726 139.06C198.922 139.06 196.648 141.333 196.648 144.137C196.648 146.941 198.922 149.214 201.726 149.214Z" fill="#363E44"/>
<path d="M203.644 152.372C204.093 149.604 202.213 146.996 199.445 146.547C196.677 146.098 194.069 147.977 193.62 150.745C193.171 153.513 195.05 156.121 197.818 156.57C200.586 157.02 203.194 155.14 203.644 152.372Z" fill="#363E44"/>
<path d="M217.382 148.174C219.365 146.191 219.365 142.977 217.382 140.994C215.399 139.011 212.184 139.011 210.202 140.994C208.219 142.977 208.219 146.191 210.202 148.174C212.184 150.157 215.399 150.157 217.382 148.174Z" fill="#363E44"/>
<path d="M220.091 141.562C221.813 139.839 221.813 137.047 220.091 135.325C218.369 133.603 215.577 133.603 213.855 135.325C212.132 137.047 212.132 139.839 213.855 141.562C215.577 143.284 218.369 143.284 220.091 141.562Z" fill="#363E44"/>
<path d="M214.201 151.544C214.821 148.916 213.194 146.283 210.566 145.663C207.938 145.043 205.306 146.67 204.685 149.298C204.065 151.926 205.693 154.558 208.32 155.179C210.948 155.799 213.581 154.171 214.201 151.544Z" fill="#363E44"/>
<path d="M209.159 150.628C211.068 148.719 211.068 145.623 209.159 143.714C207.25 141.805 204.155 141.805 202.246 143.714C200.337 145.623 200.337 148.719 202.246 150.628C204.155 152.537 207.25 152.537 209.159 150.628Z" fill="#363E44"/>
<path d="M209.955 158.409C210.683 155.324 208.773 152.233 205.688 151.505C202.603 150.777 199.511 152.687 198.783 155.772C198.055 158.857 199.966 161.949 203.051 162.677C206.136 163.405 209.227 161.494 209.955 158.409Z" fill="#363E44"/>
<path d="M200.393 163.378C202.302 161.469 202.302 158.373 200.393 156.464C198.484 154.555 195.389 154.555 193.48 156.464C191.571 158.373 191.571 161.468 193.48 163.378C195.389 165.287 198.484 165.287 200.393 163.378Z" fill="#363E44"/>
<path d="M262.196 160.536C262.196 160.536 260.771 165.277 257.054 168.976C256.275 169.749 251.537 161.938 252.662 161.545C257.486 159.858 262.198 160.536 262.198 160.536H262.196Z" fill="white"/>
<path d="M241.543 173.717C241.543 173.717 248.708 174.746 254.411 171.107C255.409 170.471 256.291 169.734 257.075 168.95C256.964 165.781 255.194 163.037 252.6 161.565C251.496 161.956 250.389 162.471 249.328 163.146C243.625 166.785 241.543 173.717 241.543 173.717Z" fill="#363E44"/>
<path d="M242.341 182.243C242.264 182.243 242.186 182.207 242.134 182.143C242.049 182.029 242.07 181.866 242.184 181.781C243.598 180.705 244.258 179.755 244.144 178.956C244.069 178.421 243.655 178.087 243.13 177.668C242.649 177.283 242.103 176.845 241.653 176.134C240.883 174.924 240.681 173.351 241.051 171.46C241.079 171.321 241.214 171.228 241.353 171.256C241.493 171.285 241.586 171.419 241.558 171.559C241.214 173.315 241.395 174.761 242.09 175.857C242.497 176.494 243.006 176.902 243.456 177.265C244.023 177.717 244.555 178.146 244.659 178.884C244.801 179.895 244.095 180.976 242.499 182.192C242.453 182.228 242.398 182.243 242.344 182.243H242.341Z" fill="#363E44"/>
<path d="M236.726 188.087C235.878 188.087 235.055 187.828 234.386 187.308C233.131 186.336 232.95 184.831 232.924 184.393C232.916 184.251 233.025 184.13 233.167 184.119C233.31 184.114 233.431 184.22 233.442 184.362C233.465 184.745 233.623 186.059 234.704 186.897C235.862 187.795 237.559 187.792 238.922 186.887C239.041 186.807 239.202 186.84 239.282 186.959C239.362 187.078 239.328 187.239 239.209 187.319C238.436 187.831 237.57 188.087 236.726 188.087Z" fill="#363E44"/>
<path d="M208.86 181.126C205.707 181.917 201.995 180.246 199.897 176.835C197.396 172.771 198.133 167.777 201.54 165.679C204.457 163.884 208.389 164.795 211.03 167.642L208.86 181.123V181.126Z" fill="#84524D"/>
<path d="M207.264 181.579C204.393 181.579 201.442 179.841 199.675 176.973C198.434 174.955 197.927 172.651 198.245 170.486C198.566 168.303 199.688 166.518 201.403 165.463C204.385 163.626 208.423 164.454 211.219 167.473C211.317 167.579 211.309 167.742 211.206 167.837C211.1 167.936 210.937 167.928 210.841 167.824C208.216 164.99 204.447 164.201 201.677 165.905C200.094 166.878 199.06 168.533 198.76 170.563C198.457 172.609 198.941 174.792 200.118 176.704C202.112 179.945 205.681 181.659 208.798 180.878C208.938 180.845 209.077 180.928 209.111 181.067C209.144 181.207 209.062 181.347 208.922 181.38C208.379 181.517 207.823 181.582 207.264 181.582V181.579Z" fill="#363E44"/>
<path d="M203.681 175.325C203.604 175.325 203.529 175.291 203.477 175.227C202.748 174.298 202.334 173.209 202.308 172.159C202.282 171.083 202.67 170.175 203.397 169.603C204.651 168.618 206.604 168.892 208.143 170.271C208.249 170.367 208.259 170.529 208.164 170.635C208.068 170.742 207.905 170.752 207.799 170.656C206.451 169.448 204.773 169.182 203.717 170.01C203.123 170.478 202.804 171.236 202.825 172.146C202.848 173.085 203.223 174.065 203.883 174.906C203.971 175.017 203.95 175.18 203.839 175.268C203.792 175.304 203.736 175.322 203.679 175.322L203.681 175.325Z" fill="#363E44"/>
<path d="M236.411 173.714C236.411 173.714 231.665 175.123 226.534 174.042C225.46 173.817 229.394 165.569 230.338 166.293C234.394 169.402 236.411 173.714 236.411 173.714Z" fill="white"/>
<path d="M214.061 163.67C214.061 163.67 217.128 170.227 223.299 173C224.378 173.484 225.48 173.82 226.566 174.045C229.155 172.214 230.48 169.229 230.286 166.252C229.354 165.543 228.317 164.896 227.171 164.382C221 161.609 214.061 163.668 214.061 163.668V163.67Z" fill="#363E44"/>
<path d="M161.827 226.029L135.711 220.22L109.571 337.741L135.687 343.55L161.827 226.029Z" fill="#004A73"/>
<path d="M239.614 243.331L157.975 225.172L131.835 342.693L213.474 360.852L239.614 243.331Z" fill="#C0DCFF"/>
<path d="M152.188 236.826L135.865 233.195L133.526 243.714L149.848 247.344L152.188 236.826Z" fill="white"/>
<path d="M148.846 251.858L132.523 248.228L130.184 258.746L146.507 262.376L148.846 251.858Z" fill="white"/>
<path d="M145.502 266.886L129.18 263.256L126.84 273.774L143.163 277.405L145.502 266.886Z" fill="white"/>
<path d="M142.161 281.917L125.838 278.286L123.498 288.804L139.821 292.435L142.161 281.917Z" fill="white"/>
<path d="M124.218 330.041C123.719 330.041 123.214 329.986 122.708 329.875C120.897 329.472 119.35 328.388 118.354 326.823C117.359 325.258 117.033 323.399 117.436 321.585C117.84 319.775 118.923 318.228 120.488 317.232C122.053 316.237 123.915 315.911 125.726 316.312C129.466 317.144 131.83 320.861 131 324.601C130.281 327.834 127.402 330.041 124.221 330.041H124.218ZM124.205 316.661C122.997 316.661 121.81 317.002 120.768 317.667C119.319 318.588 118.316 320.021 117.943 321.697C117.571 323.373 117.873 325.095 118.794 326.544C119.715 327.992 121.148 328.996 122.824 329.368C124.5 329.741 126.223 329.438 127.671 328.517C129.119 327.596 130.123 326.164 130.495 324.488C131.266 321.027 129.075 317.584 125.615 316.816C125.147 316.713 124.673 316.661 124.205 316.661Z" fill="white"/>
<path d="M179.9 249.768L153.783 243.959L127.643 361.48L153.76 367.289L179.9 249.768Z" fill="#0093DF"/>
<path d="M257.692 267.07L176.053 248.911L149.913 366.432L231.552 384.591L257.692 267.07Z" fill="#004A73"/>
<path d="M170.266 260.568L153.943 256.938L151.604 267.456L167.927 271.086L170.266 260.568Z" fill="white"/>
<path d="M166.922 275.596L150.6 271.966L148.26 282.484L164.583 286.115L166.922 275.596Z" fill="white"/>
<path d="M163.581 290.63L147.258 286.999L144.918 297.517L161.241 301.148L163.581 290.63Z" fill="white"/>
<path d="M160.237 305.659L143.914 302.028L141.575 312.547L157.897 316.177L160.237 305.659Z" fill="white"/>
<path d="M142.304 353.782C141.797 353.782 141.287 353.725 140.783 353.613C138.972 353.21 137.425 352.126 136.43 350.561C135.434 348.997 135.108 347.137 135.509 345.324C135.912 343.513 136.996 341.966 138.561 340.971C140.126 339.975 141.985 339.649 143.799 340.05C147.539 340.883 149.903 344.6 149.072 348.34C148.669 350.15 147.585 351.697 146.02 352.693C144.893 353.409 143.61 353.782 142.306 353.782H142.304ZM142.278 340.399C141.07 340.399 139.883 340.74 138.84 341.405C137.392 342.326 136.388 343.759 136.016 345.435C135.643 347.111 135.946 348.834 136.867 350.282C137.788 351.73 139.22 352.734 140.897 353.106C144.357 353.877 147.8 351.686 148.568 348.226C149.339 344.765 147.148 341.322 143.687 340.554C143.219 340.451 142.746 340.399 142.278 340.399Z" fill="white"/>
<path d="M82.5991 262.906C107.072 268.281 165.336 278.084 170.985 279.266C181.545 281.477 237.91 294.821 236.867 303.162C236.368 307.148 225.394 305.069 221.703 304.259C224.359 306.382 235.448 313.436 233.748 317.605C231.751 322.504 217.254 316.123 216.964 316.167C219.882 318.05 231.806 325.083 230.652 328.259C229.155 332.392 216.098 329.177 212.236 328.034C212.485 328.681 224.22 336.218 223.198 338.711C222.065 341.471 209.821 338.765 204.87 338.145C195.486 336.187 158.608 330.535 140.565 328.642C98.1853 324.196 79.5031 320.334 59.3906 314.579C51.5173 312.326 44.0087 307.037 40.8299 300.775C36.8054 292.85 38.8668 284.99 46.8021 280.981C58.7362 274.954 70.5719 269.016 82.5991 262.906Z" fill="#84524D"/>
<path d="M114.488 268.873C114.473 268.873 114.457 268.873 114.442 268.868C100.118 266.23 89.6839 264.186 82.5426 262.619C82.403 262.588 82.315 262.451 82.3461 262.311C82.3771 262.172 82.5142 262.084 82.6539 262.115C89.7874 263.682 100.216 265.725 114.535 268.361C114.675 268.387 114.768 268.521 114.742 268.661C114.719 268.785 114.61 268.873 114.488 268.873Z" fill="#363E44"/>
<path d="M221.916 304.156C221.869 304.156 221.823 304.143 221.779 304.117C219.87 302.93 217.863 301.869 215.814 300.959C212.134 299.324 208.238 298.145 204.237 297.452C204.097 297.428 204.002 297.294 204.028 297.152C204.051 297.012 204.185 296.919 204.328 296.942C208.37 297.643 212.307 298.835 216.026 300.488C218.096 301.406 220.123 302.48 222.053 303.68C222.174 303.755 222.211 303.915 222.136 304.037C222.087 304.114 222.001 304.158 221.916 304.158V304.156Z" fill="#363E44"/>
<path d="M217.234 316.2C217.197 316.2 217.159 316.193 217.122 316.174C216.693 315.97 216.253 315.766 215.816 315.572C212.136 313.937 208.24 312.758 204.239 312.065C204.099 312.041 204.004 311.907 204.03 311.764C204.053 311.625 204.187 311.529 204.33 311.555C208.372 312.256 212.309 313.448 216.028 315.101C216.471 315.298 216.915 315.502 217.347 315.711C217.477 315.774 217.531 315.929 217.469 316.055C217.425 316.149 217.332 316.203 217.236 316.203L217.234 316.2Z" fill="#363E44"/>
<path d="M212.007 328.127C211.979 328.127 211.95 328.122 211.922 328.114C209.436 327.255 206.85 326.591 204.237 326.138C204.097 326.115 204.002 325.98 204.028 325.838C204.051 325.698 204.185 325.605 204.328 325.629C206.968 326.086 209.581 326.759 212.092 327.625C212.227 327.672 212.299 327.819 212.253 327.954C212.216 328.06 212.116 328.127 212.007 328.127Z" fill="#363E44"/>
<path d="M290.77 300.521C290.649 300.521 290.54 300.436 290.517 300.312L286.637 279.858C286.611 279.718 286.702 279.581 286.844 279.555C286.986 279.529 287.121 279.62 287.147 279.762L291.026 300.216C291.052 300.356 290.962 300.493 290.82 300.519C290.804 300.521 290.786 300.524 290.77 300.524V300.521Z" fill="#363E44"/>
<path d="M453.526 118.282L363.961 86.8096L367.445 63.2441L457.012 94.7139L453.526 118.282Z" fill="#002943"/>
<path d="M446.59 110.171L371.352 83.7343L373.281 70.6777L448.519 97.1142L446.59 110.171Z" fill="#C0DCFF"/>
<path d="M453.56 118.183L363.994 86.7119L338.433 159.46L427.999 190.931L453.56 118.183Z" fill="#001221"/>
<path d="M428.303 172.897L416.971 168.915L412.989 180.247L424.321 184.229L428.303 172.897Z" fill="#C0DCFF"/>
<path d="M434.416 155.509L423.084 151.527L419.102 162.86L430.435 166.842L434.416 155.509Z" fill="#C0DCFF"/>
<path d="M440.526 138.119L429.193 134.137L425.211 145.469L436.544 149.451L440.526 138.119Z" fill="white"/>
<path d="M446.637 120.725L435.305 116.743L431.323 128.076L442.655 132.057L446.637 120.725Z" fill="white"/>
<path d="M411.371 166.95L400.039 162.968L396.057 174.3L407.39 178.282L411.371 166.95Z" fill="white"/>
<path d="M417.483 149.557L406.15 145.575L402.169 156.908L413.501 160.89L417.483 149.557Z" fill="white"/>
<path d="M423.592 132.166L412.26 128.185L408.278 139.517L419.61 143.499L423.592 132.166Z" fill="white"/>
<path d="M429.705 114.774L418.373 110.792L414.391 122.124L425.724 126.106L429.705 114.774Z" fill="white"/>
<path d="M394.438 161L383.105 157.019L379.124 168.351L390.456 172.333L394.438 161Z" fill="white"/>
<path d="M400.549 143.607L389.217 139.625L385.235 150.957L396.567 154.939L400.549 143.607Z" fill="white"/>
<path d="M406.659 126.216L395.326 122.234L391.344 133.567L402.677 137.549L406.659 126.216Z" fill="white"/>
<path d="M412.772 108.824L401.439 104.842L397.458 116.174L408.79 120.156L412.772 108.824Z" fill="white"/>
<path d="M377.504 155.048L366.172 151.066L362.19 162.399L373.522 166.381L377.504 155.048Z" fill="white"/>
<path d="M383.616 137.656L372.283 133.674L368.301 145.006L379.634 148.988L383.616 137.656Z" fill="white"/>
<path d="M389.723 120.267L378.391 116.285L374.409 127.618L385.741 131.599L389.723 120.267Z" fill="white"/>
<path d="M395.836 102.876L384.504 98.8945L380.522 110.227L391.854 114.209L395.836 102.876Z" fill="#C0DCFF"/>
<path d="M366.414 132.465L355.082 128.483L345.255 156.451L356.587 160.433L366.414 132.465Z" fill="white"/>
<path d="M372.791 114.317L361.459 110.335L357.477 121.667L368.81 125.649L372.791 114.317Z" fill="white"/>
<path d="M378.903 96.9243L367.57 92.9424L363.588 104.275L374.921 108.257L378.903 96.9243Z" fill="#C0DCFF"/>
<path d="M286.945 432.856L286.87 432.608L273.309 387.251L273.557 387.176L377.425 356.12L377.5 356.368L391.061 401.725L390.813 401.8L286.945 432.856ZM273.953 387.598L287.291 432.212L390.414 401.378L377.076 356.764L273.953 387.598Z" fill="#363E44"/>
<path d="M390.739 401.552L384.49 411.101L310.979 433.081L301.218 428.317L291.78 422.438L287.287 407.405L291.948 397.307L297.491 387.97L371.004 365.99L381.466 370.542L390.907 376.424L395.4 391.457L390.739 401.552Z" fill="#D3BBA3"/>
<path d="M341.342 415.151C350.024 415.151 357.062 408.113 357.062 399.431C357.062 390.748 350.024 383.71 341.342 383.71C332.659 383.71 325.621 390.748 325.621 399.431C325.621 408.113 332.659 415.151 341.342 415.151Z" fill="#E6D0BE"/>
<path d="M287.286 407.405C295.377 404.774 299.939 396.167 297.493 387.973L282.791 392.367L287.286 407.405Z" fill="#E6D0BE"/>
<path d="M291.779 422.438L296.275 437.476L310.976 433.082C308.524 424.888 299.984 420.196 291.779 422.438Z" fill="#E6D0BE"/>
<path d="M390.566 376.543C390.682 376.51 390.791 376.46 390.904 376.422L386.409 361.384L371.004 365.99C373.492 374.306 382.25 379.029 390.566 376.543Z" fill="#E6D0BE"/>
<path d="M399.897 406.495L395.402 391.457C395.286 391.488 395.169 391.509 395.05 391.542C386.735 394.028 382.007 402.786 384.492 411.101L399.897 406.495Z" fill="#E6D0BE"/>
<path d="M305.259 442.739L305.184 442.49L291.623 397.134L291.871 397.059L395.739 366.003L395.814 366.251L409.375 411.608L409.127 411.683L305.259 442.739ZM292.267 397.48L305.606 442.095L408.729 411.261L395.39 366.647L292.267 397.48Z" fill="white"/>
</g>
<defs>
<clipPath id="clip0_6548_18958">
<rect width="473.327" height="473.327" fill="white"/>
</clipPath>
</defs>
</svg>
