<svg width="474" height="474" viewBox="0 0 474 474" fill="none" xmlns="http://www.w3.org/2000/svg">
<g clip-path="url(#clip0_6548_18841)">
<path d="M236.663 473.327C367.369 473.327 473.327 367.369 473.327 236.663C473.327 105.958 367.369 0 236.663 0C105.958 0 0 105.958 0 236.663C0 367.369 105.958 473.327 236.663 473.327Z" fill="#C0DCFF"/>
<path d="M207.091 272.008C205.831 272.008 204.548 271.983 203.24 271.933C203.097 271.928 202.986 271.807 202.991 271.664C202.996 271.522 203.113 271.411 203.26 271.416C225.988 272.283 241.01 265.788 247.919 252.111C255.218 237.657 249.773 220.349 243.917 208.373C237.285 194.807 226.27 180.483 215.163 170.991C193.364 152.355 174.165 143.199 152.04 135.181C151.906 135.132 151.836 134.984 151.885 134.85C151.934 134.715 152.081 134.645 152.216 134.694C174.392 142.731 193.641 151.91 215.5 170.595C226.655 180.131 237.723 194.52 244.383 208.143C250.288 220.224 255.776 237.699 248.379 252.341C244.799 259.43 238.946 264.684 230.985 267.95C224.42 270.645 216.397 272.003 207.091 272.003V272.008Z" fill="#68B8FF"/>
<path d="M113.15 324.165C173.533 324.165 222.483 275.215 222.483 214.831C222.483 154.448 173.533 105.498 113.15 105.498C52.7666 105.498 3.81641 154.448 3.81641 214.831C3.81641 275.215 52.7666 324.165 113.15 324.165Z" fill="#68B8FF"/>
<path d="M129.007 324.423C128.79 324.423 128.573 324.423 128.355 324.423C113.561 324.338 99.2264 321.358 85.7482 315.565C72.7304 309.97 61.055 302.001 51.0479 291.878C41.0408 281.754 33.2063 269.991 27.7617 256.908C22.1258 243.366 19.3091 228.995 19.3945 214.2C19.4798 199.406 22.4594 185.071 28.2532 171.593C33.8477 158.575 41.8167 146.9 51.9402 136.895C62.0637 126.888 73.8271 119.054 86.9095 113.609C100.452 107.973 114.818 105.159 129.618 105.242C144.412 105.327 158.747 108.307 172.225 114.101C185.243 119.695 196.918 127.664 206.925 137.788C216.932 147.911 224.767 159.675 230.211 172.757C235.847 186.3 238.664 200.67 238.578 215.465C238.493 230.26 235.513 244.594 229.72 258.072C224.125 271.09 216.156 282.766 206.033 292.773C195.909 302.78 184.146 310.614 171.063 316.059C157.72 321.612 143.572 324.426 129.007 324.426V324.423ZM128.976 105.759C69.1197 105.759 20.2583 154.271 19.9143 214.206C19.5678 274.349 68.217 323.56 128.358 323.906C128.567 323.906 128.787 323.906 128.997 323.906C188.853 323.906 237.715 275.394 238.059 215.46C238.405 155.316 189.756 106.106 129.615 105.759C129.405 105.759 129.186 105.759 128.976 105.759Z" fill="white"/>
<path d="M129.177 162.055C98.8353 162.055 69.0106 156.946 42.9284 147.281C42.7939 147.231 42.7267 147.081 42.7758 146.947C42.825 146.812 42.9724 146.745 43.1095 146.794C69.1347 156.439 98.8948 161.535 129.177 161.535C159.46 161.535 188.791 156.512 214.671 147.006C214.806 146.957 214.953 147.027 215.002 147.159C215.051 147.294 214.981 147.441 214.85 147.49C188.912 157.016 159.287 162.052 129.177 162.052V162.055Z" fill="white"/>
<path d="M42.0181 281.369C41.9146 281.369 41.8137 281.304 41.7749 281.2C41.7232 281.066 41.7931 280.919 41.925 280.867C68.2554 270.958 98.4268 265.718 129.175 265.718C159.923 265.718 189.787 270.904 216.016 280.712C216.151 280.761 216.218 280.911 216.169 281.045C216.12 281.18 215.97 281.247 215.835 281.198C189.662 271.411 159.698 266.238 129.175 266.238C98.6518 266.238 68.3795 271.465 42.106 281.353C42.075 281.363 42.0439 281.369 42.0155 281.369H42.0181Z" fill="white"/>
<path d="M128.987 324.423C121.263 324.423 113.773 321.513 106.727 315.774C99.9403 310.244 93.8465 302.334 88.6192 292.263C77.8801 271.576 71.9648 244.079 71.9648 214.834C71.9648 185.588 77.8801 158.091 88.6192 137.405C93.8491 127.333 99.9403 119.421 106.727 113.893C113.773 108.154 121.261 105.244 128.987 105.244C136.712 105.244 144.2 108.154 151.246 113.893C158.033 119.423 164.127 127.333 169.354 137.405C180.093 158.091 186.008 185.588 186.008 214.834C186.008 244.079 180.093 271.576 169.354 292.263C164.124 302.334 158.033 310.246 151.246 315.774C144.2 321.513 136.712 324.423 128.987 324.423ZM128.987 105.759C97.8297 105.759 72.4821 154.69 72.4821 214.834C72.4821 274.977 97.8297 323.908 128.987 323.908C160.143 323.908 185.491 274.977 185.491 214.834C185.491 154.69 160.143 105.759 128.987 105.759Z" fill="white"/>
<path d="M128.987 324.278C128.845 324.278 128.729 324.162 128.729 324.019V105.73C128.729 105.588 128.845 105.472 128.987 105.472C129.129 105.472 129.246 105.588 129.246 105.73V324.017C129.246 324.159 129.129 324.275 128.987 324.275V324.278Z" fill="white"/>
<path d="M238.343 215.278L19.5881 213.574C19.4459 213.574 19.3295 213.455 19.3321 213.313C19.3321 213.17 19.4485 213.057 19.5907 213.057L238.345 214.761C238.488 214.761 238.604 214.88 238.601 215.022C238.601 215.165 238.485 215.278 238.343 215.278Z" fill="white"/>
<path d="M50.4711 155.591C35.9298 155.591 24.1406 167.38 24.1406 181.921C24.1406 196.462 50.4711 228.553 50.4711 228.553C50.4711 228.553 76.8015 196.462 76.8015 181.921C76.8015 167.38 65.0123 155.591 50.4711 155.591Z" fill="#0093DF"/>
<path d="M52.2284 199.855C62.1295 198.875 69.3617 190.055 68.3822 180.154C67.4027 170.253 58.5823 163.02 48.6813 164C38.7803 164.979 31.548 173.8 32.5275 183.701C33.507 193.602 42.3274 200.834 52.2284 199.855Z" fill="white"/>
<path d="M179.494 373.173L437.617 373.173L437.617 25.3758L179.494 25.3758L179.494 373.173Z" fill="white"/>
<path d="M426.945 364.813H168.821C168.679 364.813 168.562 364.697 168.562 364.555V16.7577C168.562 16.6154 168.679 16.499 168.821 16.499H426.945C427.087 16.499 427.203 16.6154 427.203 16.7577V364.555C427.203 364.697 427.087 364.813 426.945 364.813ZM169.08 364.296H426.686V17.0163H169.08V364.296Z" fill="#001221"/>
<path d="M408.905 65.322H330.731C330.589 65.322 330.473 65.2056 330.473 65.0633C330.473 64.9211 330.589 64.8047 330.731 64.8047H408.905C409.048 64.8047 409.164 64.9211 409.164 65.0633C409.164 65.2056 409.048 65.322 408.905 65.322Z" fill="#8B865C"/>
<path d="M408.905 79.8249H330.651C330.509 79.8249 330.393 79.7085 330.393 79.5663C330.393 79.424 330.509 79.3076 330.651 79.3076H408.905C409.048 79.3076 409.164 79.424 409.164 79.5663C409.164 79.7085 409.048 79.8249 408.905 79.8249Z" fill="#8B865C"/>
<path d="M408.905 94.3269H330.651C330.509 94.3269 330.393 94.2105 330.393 94.0682C330.393 93.926 330.509 93.8096 330.651 93.8096H408.905C409.048 93.8096 409.164 93.926 409.164 94.0682C409.164 94.2105 409.048 94.3269 408.905 94.3269Z" fill="#8B865C"/>
<path d="M349.109 118.857H204.92V176.859H349.109V118.857Z" fill="#C0DCFF"/>
<path d="M410.905 118.857H357.455V176.859H410.905V118.857Z" fill="#C0DCFF"/>
<path d="M350.845 236.667H205.182V251.583H350.845V236.667Z" fill="#C0DCFF"/>
<path d="M350.845 258.613H205.182V273.53H350.845V258.613Z" fill="#C0DCFF"/>
<path d="M350.845 280.56H205.182V295.476H350.845V280.56Z" fill="#C0DCFF"/>
<path d="M350.845 302.506H205.182V317.422H350.845V302.506Z" fill="#C0DCFF"/>
<path d="M350.845 324.452H205.182V339.368H350.845V324.452Z" fill="#C0DCFF"/>
<path d="M410.902 236.667H356.906V339.369H410.902V236.667Z" fill="#C0DCFF"/>
<path d="M411.166 188.066H205.184V201.816H411.166V188.066Z" fill="#C0DCFF"/>
<path d="M411.166 211.138H205.184V224.887H411.166V211.138Z" fill="#C0DCFF"/>
<path d="M233.509 68.2531H222.86V97.6562H216.973V68.2531H206.418V63.4629H233.509V68.2531Z" fill="#0093DF"/>
<path d="M254.291 89.6947H241.063L238.296 97.6559H232.127L245.028 63.46H250.351L263.276 97.6559H257.084L254.293 89.6947H254.291ZM242.726 84.9045H252.625L247.677 70.7202L242.729 84.9045H242.726Z" fill="#0093DF"/>
<path d="M278.893 75.8159L286.071 63.4629H292.92L282.6 80.4199L293.155 97.6588H286.236L278.896 85.117L271.532 97.6588H264.637L275.215 80.4199L264.872 63.4629H271.721L278.899 75.8159H278.893Z" fill="#0093DF"/>
<path d="M246.27 472.652L268.958 386.051L384.013 390.611L389.121 472.652H322.894L321.754 451.016L305.71 472.652H246.27Z" fill="#002943"/>
<path d="M321.754 451.274C321.705 451.274 321.659 451.261 321.615 451.233C321.496 451.155 321.46 450.995 321.537 450.876L332.227 434.351C332.305 434.232 332.465 434.196 332.584 434.273C332.703 434.351 332.739 434.511 332.662 434.63L321.972 451.155C321.922 451.233 321.84 451.274 321.754 451.274Z" fill="#E6D0BE"/>
<path d="M304.635 208.449C304.027 208.449 303.445 208.325 302.902 208.077C300.077 206.778 299.299 202.42 301.161 198.362C302.056 196.412 303.424 194.813 305.007 193.864C306.624 192.897 308.277 192.716 309.66 193.352C312.485 194.65 313.263 199.009 311.401 203.067C310.506 205.017 309.138 206.615 307.555 207.565C306.572 208.152 305.576 208.452 304.635 208.452V208.449ZM301.632 198.577C299.886 202.379 300.553 206.429 303.119 207.606C304.343 208.17 305.825 207.997 307.291 207.12C308.789 206.225 310.082 204.709 310.933 202.852C312.679 199.05 312.011 194.999 309.446 193.823C308.222 193.259 306.738 193.432 305.274 194.309C303.776 195.204 302.483 196.719 301.632 198.577Z" fill="#363E44"/>
<path d="M308.492 200.191C313.585 189.069 317.534 183.037 324.536 180.471C333.948 177.023 343.184 183.065 344.139 183.712C344.749 184.123 353.766 189.459 354.425 199.986C355.077 210.381 350.201 220.761 341.467 226.255L339.465 249.181C338.824 256.542 332.339 261.987 324.983 261.343L323.318 261.198C315.962 260.554 310.52 254.067 311.161 246.709L312.498 231.394C307.866 230.595 304.291 228.919 303.019 226.425C300.738 221.958 302.494 213.291 308.492 200.196V200.191Z" fill="#9E6C5A"/>
<path d="M322.592 205.848C322.566 205.848 322.541 205.845 322.517 205.837L301.352 199.301C301.215 199.26 301.14 199.115 301.181 198.978C301.223 198.841 301.368 198.766 301.505 198.807L322.67 205.343C322.807 205.385 322.882 205.53 322.841 205.667C322.807 205.778 322.703 205.85 322.592 205.85V205.848Z" fill="#363E44"/>
<path d="M312.318 231.267C312.318 231.267 312.297 231.267 312.29 231.267C312.147 231.252 312.047 231.122 312.062 230.98L312.701 225.385C312.716 225.243 312.846 225.142 312.988 225.158C313.13 225.173 313.231 225.303 313.216 225.445L312.577 231.039C312.561 231.171 312.45 231.27 312.321 231.27L312.318 231.267Z" fill="#363E44"/>
<path d="M322.986 214.409C322.916 214.409 322.846 214.381 322.795 214.326C322.699 214.22 322.704 214.057 322.81 213.962C324.191 212.694 325.05 211.869 325.676 211.269C325.986 210.972 326.24 210.726 326.475 210.509C326.581 210.411 326.744 210.418 326.84 210.522C326.938 210.625 326.93 210.791 326.827 210.886C326.594 211.104 326.341 211.347 326.033 211.642C325.404 212.244 324.543 213.072 323.157 214.342C323.108 214.389 323.046 214.409 322.981 214.409H322.986Z" fill="#363E44"/>
<path d="M321.589 179.292C330.021 172.311 349.355 178.446 356.101 189.206C365.223 203.758 358.304 223.994 345.843 230.005C341.663 232.023 334.773 234.338 328.017 230.448C324.072 228.177 325.415 222.189 325.764 220.751C329.662 220.386 332.709 217.295 332.985 213.584C333.265 209.846 330.663 206.45 327.386 205.597C325.213 205.03 323.32 205.734 322.546 206.073C317.016 194.708 315.578 184.266 321.587 179.292H321.589Z" fill="#363E44"/>
<path d="M389.174 301.533C410.921 293.275 475.138 273.286 466.453 246.405C459.27 224.169 397.588 246.397 375.463 253.197C380.033 269.308 384.604 285.422 389.174 301.533Z" fill="#9E6C5A"/>
<path d="M435.777 269.223C435.777 269.223 435.777 269.223 435.775 269.223C416.28 231.724 401.731 205.492 397.557 197.215C397.12 196.349 396.341 194.823 395.904 192.64C394.285 184.549 399.952 180.395 402.13 171.113C404.602 160.578 400.032 153.248 402.494 151.996C404.207 151.127 406.71 153.405 409.703 159.538C407.962 154.618 405.893 147.842 408.614 146.887C411.814 145.954 415.179 153.628 416.986 158.371C414.798 152.632 415.349 148.923 416.999 148.77C419.596 148.527 422.33 152.586 424.93 160.283C424.619 154.466 425.411 153.007 426.9 153.227C429.624 153.628 431.641 159.998 432.562 165.903C433.599 172.551 432.099 178.065 431.07 181.521C431.07 181.521 431.07 181.521 431.07 181.523C447.445 206.372 451.738 212.196 464.526 232.552C479.054 255.68 456.728 279.114 435.772 269.223H435.777Z" fill="#9E6C5A"/>
<path d="M402.116 180.093C396.581 170.929 392.644 168.797 391.222 169.721C388.827 171.275 390.353 181.031 396.754 195.443C398.632 191.3 400.238 184.234 402.116 180.09V180.093Z" fill="#9E6C5A"/>
<path d="M409.866 169.537C409.85 169.537 409.832 169.537 409.817 169.532C409.677 169.506 409.584 169.369 409.613 169.229C409.856 167.964 409.982 166.674 409.99 165.391C410 163.529 409.76 161.666 409.276 159.858C409.24 159.721 409.32 159.579 409.46 159.543C409.597 159.507 409.739 159.587 409.775 159.726C410.272 161.581 410.518 163.49 410.507 165.396C410.5 166.71 410.37 168.034 410.119 169.33C410.096 169.454 409.988 169.54 409.866 169.54V169.537Z" fill="#363E44"/>
<path d="M416.843 167.639C416.827 167.639 416.809 167.639 416.793 167.633C416.654 167.608 416.561 167.47 416.589 167.331C416.832 166.066 416.959 164.773 416.967 163.492C416.977 161.63 416.736 159.768 416.253 157.96C416.217 157.823 416.297 157.681 416.436 157.644C416.574 157.608 416.716 157.688 416.752 157.828C417.249 159.683 417.494 161.589 417.484 163.498C417.476 164.812 417.347 166.136 417.096 167.432C417.073 167.556 416.964 167.641 416.843 167.641V167.639Z" fill="#363E44"/>
<path d="M425.259 170.189C425.243 170.189 425.225 170.189 425.209 170.184C425.07 170.158 424.977 170.021 425.005 169.882C425.248 168.617 425.375 167.326 425.383 166.043C425.393 164.181 425.153 162.319 424.669 160.511C424.633 160.374 424.713 160.231 424.852 160.195C424.99 160.159 425.132 160.239 425.168 160.379C425.665 162.233 425.91 164.14 425.9 166.048C425.892 167.365 425.763 168.687 425.512 169.982C425.489 170.107 425.38 170.192 425.259 170.192V170.189Z" fill="#363E44"/>
<path d="M241.858 266.059C194.223 276.195 156.817 286.463 160.901 301.755C169.548 334.122 205.484 317.486 237.425 317.201C238.628 304.075 240.743 281.971 241.858 266.059Z" fill="#9E6C5A"/>
<path d="M201.68 296.336C201.68 296.336 213.707 263.968 218.872 246.36C224.296 227.869 229.617 199.777 225.678 199.081C223.435 198.686 221.917 202.366 218.516 212.477C218.177 211.794 216.819 210.009 214.677 209.983C211.509 209.947 210.598 212.469 210.428 212.66C210.332 212.42 209.225 209.851 207.109 209.469C204.727 209.037 202.937 210.139 201.884 211.721C201.628 211.132 200.457 209.05 198.413 208.739C196.311 208.421 193.884 209.616 193.29 211.755C192.201 215.679 189.187 227.406 187.028 232.936C182.775 243.815 162.49 280.419 160.498 297.766C175.231 294.424 201.677 296.333 201.677 296.333L201.68 296.336Z" fill="#9E6C5A"/>
<path d="M197.63 217.391C197.63 217.391 197.604 217.391 197.594 217.389L194.187 216.895C194.045 216.874 193.947 216.742 193.968 216.602C193.988 216.46 194.118 216.362 194.26 216.383L197.666 216.877C197.809 216.897 197.907 217.029 197.886 217.169C197.868 217.298 197.757 217.391 197.63 217.391Z" fill="#363E44"/>
<path d="M206.281 218.679C206.281 218.679 206.26 218.679 206.252 218.679L202.385 218.242C202.243 218.227 202.142 218.098 202.158 217.955C202.173 217.813 202.297 217.71 202.445 217.728L206.312 218.165C206.454 218.18 206.555 218.31 206.539 218.452C206.524 218.584 206.413 218.682 206.283 218.682L206.281 218.679Z" fill="#363E44"/>
<path d="M214.683 219.567C214.683 219.567 214.657 219.567 214.644 219.564C214.008 219.471 213.434 219.391 212.857 219.311C212.285 219.231 211.711 219.153 211.078 219.06C210.935 219.039 210.84 218.907 210.86 218.768C210.881 218.625 211.01 218.527 211.153 218.55C211.786 218.643 212.358 218.721 212.929 218.801C213.506 218.881 214.083 218.962 214.719 219.055C214.862 219.075 214.957 219.207 214.937 219.347C214.918 219.476 214.807 219.569 214.68 219.569L214.683 219.567Z" fill="#363E44"/>
<path d="M221.538 221.168C221.52 221.168 221.501 221.168 221.481 221.162L218.144 220.423C218.005 220.392 217.917 220.255 217.948 220.115C217.979 219.975 218.118 219.887 218.255 219.918L221.592 220.658C221.732 220.689 221.82 220.826 221.789 220.966C221.763 221.087 221.654 221.168 221.535 221.168H221.538Z" fill="#363E44"/>
<path d="M388.266 314.815L419.635 303.282L407.07 242.443C407.07 242.443 309.096 236.075 231.869 266.143L233.478 325.233L258.872 327.354L241.806 403.255C303.805 411.167 354.145 410.251 396.46 403.255L388.269 314.818L388.266 314.815Z" fill="#004A73"/>
<path d="M385.988 312.226C385.864 312.226 385.753 312.136 385.732 312.006L382.618 292.008C382.597 291.865 382.693 291.733 382.833 291.713C382.978 291.692 383.107 291.788 383.128 291.927L386.242 311.926C386.262 312.068 386.167 312.2 386.027 312.221C386.014 312.221 386.001 312.224 385.986 312.224L385.988 312.226Z" fill="#363E44"/>
<path d="M171.142 461.277C189.94 461.277 205.18 456.451 205.18 450.499C205.18 444.546 189.94 439.721 171.142 439.721C152.343 439.721 137.104 444.546 137.104 450.499C137.104 456.451 152.343 461.277 171.142 461.277Z" fill="#E0AA63"/>
<path d="M205.18 439.759H137.104V450.863H205.18V439.759Z" fill="#E0AA63"/>
<path d="M171.142 450.749C189.94 450.749 205.18 445.924 205.18 439.971C205.18 434.019 189.94 429.193 171.142 429.193C152.343 429.193 137.104 434.019 137.104 439.971C137.104 445.924 152.343 450.749 171.142 450.749Z" fill="#EFBC73"/>
<path d="M175.15 451.008C166.033 451.008 157.456 449.883 151.003 447.839C144.456 445.767 140.854 442.971 140.854 439.971C140.854 436.971 144.459 434.175 151.003 432.103C157.456 430.06 166.033 428.935 175.15 428.935C184.268 428.935 192.844 430.06 199.298 432.103C205.844 434.175 209.447 436.971 209.447 439.971C209.447 442.971 205.842 445.767 199.298 447.839C192.844 449.883 184.268 451.008 175.15 451.008ZM175.15 429.452C166.085 429.452 157.565 430.569 151.161 432.597C144.94 434.568 141.371 437.255 141.371 439.971C141.371 442.687 144.938 445.377 151.161 447.345C157.565 449.373 166.085 450.49 175.15 450.49C184.216 450.49 192.736 449.373 199.14 447.345C205.36 445.374 208.93 442.687 208.93 439.971C208.93 437.255 205.363 434.565 199.14 432.597C192.736 430.569 184.216 429.452 175.15 429.452Z" fill="white"/>
<path d="M173.591 443.734C192.39 443.734 207.629 438.908 207.629 432.956C207.629 427.003 192.39 422.178 173.591 422.178C154.792 422.178 139.553 427.003 139.553 432.956C139.553 438.908 154.792 443.734 173.591 443.734Z" fill="#E0AA63"/>
<path d="M207.631 422.216H139.555V433.32H207.631V422.216Z" fill="#E0AA63"/>
<path d="M173.591 433.206C192.39 433.206 207.629 428.381 207.629 422.428C207.629 416.476 192.39 411.65 173.591 411.65C154.792 411.65 139.553 416.476 139.553 422.428C139.553 428.381 154.792 433.206 173.591 433.206Z" fill="#EFBC73"/>
<path d="M177.603 433.465C168.486 433.465 159.909 432.34 153.456 430.296C146.91 428.224 143.307 425.428 143.307 422.428C143.307 419.428 146.912 416.632 153.456 414.56C159.909 412.517 168.486 411.392 177.603 411.392C186.721 411.392 195.298 412.517 201.751 414.56C208.297 416.632 211.9 419.428 211.9 422.428C211.9 425.428 208.295 428.224 201.751 430.296C195.298 432.34 186.721 433.465 177.603 433.465ZM177.603 411.909C168.538 411.909 160.018 413.026 153.614 415.054C147.393 417.025 143.824 419.712 143.824 422.428C143.824 425.144 147.391 427.834 153.614 429.802C160.018 431.83 168.538 432.947 177.603 432.947C186.669 432.947 195.189 431.83 201.593 429.802C207.814 427.831 211.383 425.144 211.383 422.428C211.383 419.712 207.814 417.022 201.593 415.054C195.189 413.026 186.669 411.909 177.603 411.909Z" fill="white"/>
<path d="M109.974 465.865C128.772 465.865 144.012 461.04 144.012 455.087C144.012 449.135 128.772 444.31 109.974 444.31C91.175 444.31 75.9355 449.135 75.9355 455.087C75.9355 461.04 91.175 465.865 109.974 465.865Z" fill="#E0AA63"/>
<path d="M144.012 444.351H75.9355V455.454H144.012V444.351Z" fill="#E0AA63"/>
<path d="M109.974 455.338C128.772 455.338 144.012 450.513 144.012 444.56C144.012 438.608 128.772 433.782 109.974 433.782C91.175 433.782 75.9355 438.608 75.9355 444.56C75.9355 450.513 91.175 455.338 109.974 455.338Z" fill="#EFBC73"/>
<path d="M113.982 455.597C104.865 455.597 96.2882 454.471 89.8349 452.428C83.2885 450.356 79.6855 447.56 79.6855 444.56C79.6855 441.56 83.2911 438.764 89.8349 436.692C96.2882 434.649 104.865 433.523 113.982 433.523C123.1 433.523 131.677 434.649 138.13 436.692C144.676 438.764 148.279 441.56 148.279 444.56C148.279 447.56 144.674 450.356 138.13 452.428C131.677 454.471 123.1 455.597 113.982 455.597ZM113.982 434.041C104.917 434.041 96.3968 435.158 89.9927 437.186C83.7722 439.157 80.2028 441.844 80.2028 444.56C80.2028 447.276 83.7722 449.966 89.9927 451.934C96.3968 453.962 104.917 455.079 113.982 455.079C123.048 455.079 131.568 453.962 137.972 451.934C144.193 449.963 147.762 447.276 147.762 444.56C147.762 441.844 144.195 439.154 137.972 437.186C131.568 435.158 123.048 434.041 113.982 434.041Z" fill="white"/>
<path d="M116.993 448.232C135.792 448.232 151.031 443.42 151.031 437.483C151.031 431.546 135.792 426.733 116.993 426.733C98.1945 426.733 82.9551 431.546 82.9551 437.483C82.9551 443.42 98.1945 448.232 116.993 448.232Z" fill="#E0AA63"/>
<path d="M151.031 426.777H82.9551V437.85H151.031V426.777Z" fill="#E0AA63"/>
<path d="M116.993 437.736C135.792 437.736 151.031 432.923 151.031 426.987C151.031 421.05 135.792 416.237 116.993 416.237C98.1945 416.237 82.9551 421.05 82.9551 426.987C82.9551 432.923 98.1945 437.736 116.993 437.736Z" fill="#EFBC73"/>
<path d="M121.002 437.995C111.885 437.995 103.31 436.872 96.8544 434.834C90.3081 432.767 86.7051 429.979 86.7051 426.987C86.7051 423.994 90.3106 421.206 96.8544 419.139C103.308 417.101 111.882 415.979 121.002 415.979C130.122 415.979 138.696 417.101 145.149 419.139C151.696 421.206 155.299 423.994 155.299 426.987C155.299 429.979 151.693 432.767 145.149 434.834C138.696 436.872 130.119 437.995 121.002 437.995ZM121.002 416.498C111.936 416.498 103.416 417.613 97.0122 419.633C90.7917 421.596 87.2224 424.279 87.2224 426.987C87.2224 429.695 90.7891 432.377 97.0122 434.34C103.416 436.363 111.936 437.475 121.002 437.475C130.068 437.475 138.587 436.36 144.992 434.34C151.212 432.374 154.781 429.695 154.781 426.987C154.781 424.279 151.215 421.596 144.992 419.633C138.587 417.611 130.068 416.498 121.002 416.498Z" fill="white"/>
<path d="M180.282 426.189C199.081 426.189 214.32 421.363 214.32 415.411C214.32 409.458 199.081 404.633 180.282 404.633C161.484 404.633 146.244 409.458 146.244 415.411C146.244 421.363 161.484 426.189 180.282 426.189Z" fill="#E0AA63"/>
<path d="M214.32 404.674H146.244V415.778H214.32V404.674Z" fill="#E0AA63"/>
<path d="M180.282 415.661C199.081 415.661 214.32 410.836 214.32 404.883C214.32 398.931 199.081 394.105 180.282 394.105C161.484 394.105 146.244 398.931 146.244 404.883C146.244 410.836 161.484 415.661 180.282 415.661Z" fill="#EFBC73"/>
<path d="M184.291 415.92C175.174 415.92 166.597 414.795 160.144 412.751C153.597 410.68 149.994 407.884 149.994 404.883C149.994 401.883 153.6 399.087 160.144 397.015C166.597 394.972 175.174 393.847 184.291 393.847C193.408 393.847 201.985 394.972 208.438 397.015C214.985 399.087 218.588 401.883 218.588 404.883C218.588 407.884 214.982 410.68 208.438 412.751C201.985 414.795 193.408 415.92 184.291 415.92ZM184.291 394.364C175.225 394.364 166.705 395.481 160.301 397.509C154.081 399.48 150.511 402.167 150.511 404.883C150.511 407.599 154.081 410.289 160.301 412.257C166.705 414.285 175.225 415.402 184.291 415.402C193.357 415.402 201.876 414.285 208.281 412.257C214.501 410.286 218.07 407.599 218.07 404.883C218.07 402.167 214.504 399.477 208.281 397.509C201.876 395.481 193.357 394.364 184.291 394.364Z" fill="white"/>
<path d="M173.032 410.587C191.831 410.587 207.07 405.762 207.07 399.809C207.07 393.857 191.831 389.031 173.032 389.031C154.234 389.031 138.994 393.857 138.994 399.809C138.994 405.762 154.234 410.587 173.032 410.587Z" fill="#E0AA63"/>
<path d="M207.07 389.072H138.994V400.176H207.07V389.072Z" fill="#E0AA63"/>
<path d="M173.032 400.06C191.831 400.06 207.07 395.234 207.07 389.282C207.07 383.329 191.831 378.504 173.032 378.504C154.234 378.504 138.994 383.329 138.994 389.282C138.994 395.234 154.234 400.06 173.032 400.06Z" fill="#EFBC73"/>
<path d="M177.045 400.318C167.927 400.318 159.351 399.193 152.897 397.15C146.351 395.078 142.748 392.282 142.748 389.282C142.748 386.281 146.354 383.485 152.897 381.414C159.351 379.37 167.927 378.245 177.045 378.245C186.162 378.245 194.739 379.37 201.192 381.414C207.739 383.485 211.342 386.281 211.342 389.282C211.342 392.282 207.736 395.078 201.192 397.15C194.739 399.193 186.162 400.318 177.045 400.318ZM177.045 378.762C167.979 378.762 159.459 379.88 153.055 381.908C146.835 383.878 143.265 386.566 143.265 389.282C143.265 391.997 146.832 394.687 153.055 396.656C159.459 398.684 167.979 399.801 177.045 399.801C186.11 399.801 194.63 398.684 201.035 396.656C207.255 394.685 210.824 391.997 210.824 389.282C210.824 386.566 207.255 383.876 201.035 381.908C194.63 379.88 186.11 378.762 177.045 378.762Z" fill="white"/>
<path d="M120.014 430.463C124.243 426.274 116.946 412.051 103.716 398.696C90.4862 385.341 76.333 377.91 72.1042 382.099C67.8754 386.289 75.1723 400.511 88.4022 413.866C101.632 427.222 115.785 434.652 120.014 430.463Z" fill="#E0AA63"/>
<path d="M127.644 422.909L79.7344 374.546L71.8459 382.36L119.756 430.724L127.644 422.909Z" fill="#E0AA63"/>
<path d="M127.493 423.055C131.721 418.866 124.425 404.643 111.195 391.288C97.9647 377.933 83.8115 370.502 79.5827 374.691C75.3539 378.88 82.6508 393.103 95.8807 406.458C109.111 419.813 123.264 427.244 127.493 423.055Z" fill="#EFBC73"/>
<path d="M126.921 427.332C124.565 427.332 121.451 426.352 117.763 424.414C111.77 421.266 104.934 415.967 98.5191 409.49C92.102 403.014 86.867 396.128 83.7761 390.104C80.6413 383.995 80.0904 379.469 82.2217 377.356C84.3529 375.243 88.8767 375.837 94.9549 379.029C100.948 382.177 107.784 387.477 114.198 393.953C120.615 400.43 125.851 407.315 128.941 413.339C132.076 419.448 132.627 423.975 130.496 426.088C129.658 426.918 128.447 427.329 126.921 427.329V427.332ZM85.7884 376.644C84.4047 376.644 83.3158 377.001 82.5838 377.726C80.6543 379.637 81.2543 384.065 84.234 389.869C87.3015 395.846 92.503 402.685 98.8838 409.126C105.265 415.566 112.054 420.832 118.001 423.956C123.779 426.99 128.199 427.632 130.129 425.72C132.058 423.809 131.458 419.381 128.478 413.577C125.411 407.599 120.209 400.761 113.829 394.32C107.448 387.88 100.658 382.611 94.7118 379.49C91.1218 377.607 88.0568 376.644 85.7884 376.644Z" fill="white"/>
<path d="M180.362 392.65C199.161 392.65 214.401 387.824 214.401 381.872C214.401 375.919 199.161 371.094 180.362 371.094C161.564 371.094 146.324 375.919 146.324 381.872C146.324 387.824 161.564 392.65 180.362 392.65Z" fill="#E0AA63"/>
<path d="M214.401 371.135H146.324V382.239H214.401V371.135Z" fill="#E0AA63"/>
<path d="M180.362 382.125C199.161 382.125 214.401 377.3 214.401 371.347C214.401 365.395 199.161 360.569 180.362 360.569C161.564 360.569 146.324 365.395 146.324 371.347C146.324 377.3 161.564 382.125 180.362 382.125Z" fill="#EFBC73"/>
<path d="M184.371 382.384C175.254 382.384 166.677 381.258 160.224 379.215C153.677 377.143 150.074 374.347 150.074 371.347C150.074 368.347 153.68 365.551 160.224 363.479C166.677 361.436 175.254 360.311 184.371 360.311C193.488 360.311 202.065 361.436 208.518 363.479C215.065 365.551 218.668 368.347 218.668 371.347C218.668 374.347 215.062 377.143 208.518 379.215C202.065 381.258 193.488 382.384 184.371 382.384ZM184.371 360.828C175.305 360.828 166.786 361.945 160.381 363.973C154.161 365.944 150.592 368.631 150.592 371.347C150.592 374.063 154.158 376.753 160.381 378.721C166.786 380.749 175.305 381.866 184.371 381.866C193.437 381.866 201.957 380.749 208.361 378.721C214.581 376.75 218.151 374.063 218.151 371.347C218.151 368.631 214.584 365.941 208.361 363.973C201.957 361.945 193.437 360.828 184.371 360.828Z" fill="white"/>
<path d="M191.386 377.048C210.185 377.048 225.424 372.223 225.424 366.27C225.424 360.318 210.185 355.492 191.386 355.492C172.587 355.492 157.348 360.318 157.348 366.27C157.348 372.223 172.587 377.048 191.386 377.048Z" fill="#E0AA63"/>
<path d="M225.424 355.533H157.348V366.637H225.424V355.533Z" fill="#E0AA63"/>
<path d="M191.386 366.521C210.185 366.521 225.424 361.695 225.424 355.743C225.424 349.79 210.185 344.965 191.386 344.965C172.587 344.965 157.348 349.79 157.348 355.743C157.348 361.695 172.587 366.521 191.386 366.521Z" fill="#EFBC73"/>
<path d="M195.394 366.779C186.277 366.779 177.7 365.654 171.247 363.611C164.701 361.539 161.098 358.743 161.098 355.743C161.098 352.742 164.703 349.946 171.247 347.875C177.7 345.831 186.277 344.706 195.394 344.706C204.512 344.706 213.089 345.831 219.542 347.875C226.088 349.946 229.691 352.742 229.691 355.743C229.691 358.743 226.086 361.539 219.542 363.611C213.089 365.654 204.512 366.779 195.394 366.779ZM195.394 345.223C186.329 345.223 177.809 346.341 171.405 348.369C165.184 350.339 161.615 353.027 161.615 355.743C161.615 358.458 165.182 361.148 171.405 363.117C177.809 365.144 186.329 366.262 195.394 366.262C204.46 366.262 212.98 365.144 219.384 363.117C225.605 361.146 229.174 358.458 229.174 355.743C229.174 353.027 225.607 350.337 219.384 348.369C212.98 346.341 204.46 345.223 195.394 345.223Z" fill="white"/>
</g>
<defs>
<clipPath id="clip0_6548_18841">
<rect width="473.327" height="473.327" fill="white"/>
</clipPath>
</defs>
</svg>
