<svg width="37" height="37" viewBox="0 0 37 37" fill="none" xmlns="http://www.w3.org/2000/svg">
<path d="M2.3125 7.51562C2.3125 5.92 3.6075 4.625 5.20081 4.625H6.35706C7.95269 4.625 9.24306 5.92 9.24306 7.51562V29.4728C9.24306 31.0684 7.95038 32.3634 6.35706 32.3634H5.20081C4.82121 32.3631 4.44539 32.2881 4.0948 32.1425C3.7442 31.997 3.42571 31.7838 3.15751 31.5152C2.88931 31.2465 2.67664 30.9277 2.53165 30.5769C2.38666 30.226 2.3122 29.8501 2.3125 29.4705V7.51562ZM5.20081 6.9375C5.04749 6.9375 4.90044 6.99841 4.79202 7.10683C4.6836 7.21525 4.62269 7.3623 4.62269 7.51562V29.4728C4.62269 29.7919 4.88169 30.0509 5.20081 30.0509H6.35706C6.51039 30.0509 6.65744 29.99 6.76586 29.8816C6.87428 29.7732 6.93519 29.6261 6.93519 29.4728V7.51331C6.93519 7.35998 6.87428 7.21294 6.76586 7.10452C6.65744 6.9961 6.51039 6.93519 6.35706 6.93519L5.20081 6.9375ZM11.5556 7.51562C11.5556 5.92 12.8483 4.625 14.4439 4.625H15.6001C17.1934 4.625 18.4861 5.92 18.4861 7.51562V29.4728C18.4861 31.0684 17.1911 32.3634 15.5978 32.3634H14.4416C13.6757 32.3622 12.9417 32.0571 12.4006 31.5152C11.8595 30.9732 11.5556 30.2387 11.5556 29.4728V7.51562ZM14.4439 6.9375C14.2905 6.9375 14.1435 6.99841 14.0351 7.10683C13.9267 7.21525 13.8658 7.3623 13.8658 7.51562V29.4728C13.8658 29.7919 14.1248 30.0509 14.4439 30.0509H15.6001C15.7531 30.0503 15.8995 29.9891 16.0074 29.8808C16.1153 29.7724 16.1759 29.6257 16.1759 29.4728V7.51331C16.1759 7.35998 16.115 7.21294 16.0066 7.10452C15.8982 6.9961 15.7511 6.93519 15.5978 6.93519L14.4439 6.9375ZM27.6852 11.0468C27.4076 10.3584 26.8757 9.80313 26.1997 9.49618C25.5238 9.18922 24.7557 9.15407 24.0546 9.398L22.7064 9.86975C22.3382 9.99904 21.9999 10.2016 21.712 10.4651C21.4241 10.7287 21.1926 11.0479 21.0314 11.4033C20.8702 11.7588 20.7826 12.1432 20.774 12.5334C20.7654 12.9237 20.8359 13.3116 20.9813 13.6738L27.7731 30.5643C28.3489 31.9981 29.9469 32.7219 31.4061 32.2131L32.7519 31.7414C33.1205 31.6121 33.459 31.4095 33.7471 31.1458C34.0352 30.882 34.2668 30.5627 34.4281 30.2069C34.5893 29.8512 34.6768 29.4665 34.6852 29.076C34.6936 28.6855 34.6228 28.2974 34.4771 27.935L27.6852 11.0468ZM24.8178 11.5787C24.9578 11.5306 25.1109 11.5382 25.2456 11.5997C25.3803 11.6612 25.4862 11.7721 25.5416 11.9094L32.3334 28.7976C32.3628 28.8701 32.3772 28.9479 32.3757 29.0262C32.3742 29.1044 32.3568 29.1816 32.3246 29.253C32.2924 29.3243 32.246 29.3884 32.1883 29.4413C32.1306 29.4942 32.0627 29.5348 31.9888 29.5607L30.6429 30.0301C30.5029 30.079 30.3494 30.0722 30.2143 30.011C30.0791 29.9499 29.9726 29.8392 29.9168 29.7017L23.125 12.8112C23.0959 12.7388 23.0818 12.6613 23.0835 12.5833C23.0852 12.5052 23.1026 12.4284 23.1348 12.3573C23.167 12.2862 23.2133 12.2224 23.2708 12.1696C23.3283 12.1169 23.3959 12.0763 23.4696 12.0504L24.8178 11.5787Z" fill="black"/>
</svg>
