<svg width="40" height="38" viewBox="0 0 40 38" fill="none" xmlns="http://www.w3.org/2000/svg">
<path d="M29.9999 23.75V14.25C29.9999 9.77233 29.9999 7.53192 28.5349 6.14175C27.0716 4.75 24.7133 4.75 19.9999 4.75H13.3333C8.61992 4.75 6.26159 4.75 4.79825 6.14175C3.33325 7.53192 3.33325 9.77233 3.33325 14.25V23.75C3.33325 28.2277 3.33325 30.4681 4.79825 31.8583C6.26159 33.25 8.61992 33.25 13.3333 33.25H33.3333M9.99992 12.6667H23.3333M9.99992 19H23.3333M9.99992 25.3333H16.6666" stroke="black" stroke-width="1.5" stroke-linecap="round" stroke-linejoin="round"/>
<path d="M30 12.6667H31.6667C34.0233 12.6667 35.2017 12.6667 35.9333 13.3633C36.6667 14.0584 36.6667 15.1778 36.6667 17.4167V30.0833C36.6667 30.9232 36.3155 31.7286 35.6904 32.3225C35.0652 32.9164 34.2174 33.25 33.3333 33.25C32.4493 33.25 31.6014 32.9164 30.9763 32.3225C30.3512 31.7286 30 30.9232 30 30.0833V12.6667Z" stroke="black" stroke-width="1.5" stroke-linecap="round" stroke-linejoin="round"/>
</svg>
