<svg width="144" height="144" viewBox="0 0 144 144" fill="none" xmlns="http://www.w3.org/2000/svg">
<path d="M122 85C122 112.614 99.6142 135 72 135C44.3858 135 22 112.614 22 85C22 57.3858 44.3858 35 72 35C99.6142 35 122 57.3858 122 85Z" fill="#F5F5F5"/>
<path d="M102.683 115.534H42.6788C40.9064 115.534 39.4688 114.097 39.4688 112.324V12.2101C39.4688 10.4376 40.9064 9 42.6788 9H102.683C104.456 9 105.893 10.4376 105.893 12.2101V112.324C105.893 114.097 104.456 115.534 102.683 115.534Z" fill="#0093DF"/>
<path d="M102.683 9H94.7539V115.534H102.683C104.456 115.534 105.893 114.097 105.893 112.324V12.2101C105.893 10.4376 104.456 9 102.683 9Z" fill="#004A73"/>
<path d="M39.4688 21.4102H105.893V103.124H39.4688V21.4102Z" fill="#D9E5FF"/>
<path d="M97.4361 76.4697C100.442 76.4697 103.301 77.0941 105.893 78.2195V21.4102H94.7539V76.6376C95.6317 76.5268 96.5272 76.4697 97.4361 76.4697Z" fill="#D9E5FF"/>
<path d="M95.3206 68.4706H50.0415C48.9656 68.4706 48.0928 67.5986 48.0928 66.5228V48.1637C48.0928 47.0878 48.9656 46.2158 50.0415 46.2158H95.3206C96.3974 46.2158 97.2693 47.0878 97.2693 48.1637V66.5228C97.2693 67.5986 96.3965 68.4706 95.3206 68.4706Z" fill="#EDEDED"/>
<path d="M95.3207 46.2158H86.1294V68.4706H95.3207C96.3974 68.4706 97.2694 67.5986 97.2694 66.5219V48.1637C97.2694 47.0878 96.3966 46.2158 95.3207 46.2158Z" fill="#EDEDED"/>
<path d="M75.297 13.2832H68.2147C67.2974 13.2832 66.5547 14.0259 66.5547 14.9432C66.5547 15.8596 67.2974 16.6032 68.2147 16.6032H75.297C76.2134 16.6032 76.9561 15.8596 76.9561 14.9432C76.9561 14.0259 76.2134 13.2832 75.297 13.2832Z" fill="#EDEDED"/>
<path d="M64.1222 54.7706C64.0366 54.7706 61.4316 55.6535 61.4316 55.6535L61.5391 53.2424C61.5181 52.6398 61.0657 52.3604 60.5488 52.3604C60.0326 52.3604 59.5803 52.6398 59.5593 53.2424L59.6667 55.6325C59.6667 55.6325 57.0617 54.7715 56.9971 54.7715C56.4164 54.7715 55.9858 55.3094 55.9858 55.8046C55.9858 56.2569 56.1797 56.6438 56.6102 56.7302L58.9995 57.4193L57.4923 59.5282C57.363 59.6793 57.2556 59.8732 57.2556 60.1098C57.2556 60.7124 57.9874 61.0783 58.4179 61.0783C58.6764 61.0783 58.8921 61.0137 59.0642 60.7342L60.5488 58.4951L62.0132 60.7124C62.2281 61.0347 62.5075 61.0783 62.7232 61.0783C63.2612 61.0783 63.8428 60.6688 63.8428 60.0662C63.8428 59.8723 63.7781 59.6575 63.6917 59.5501L62.1206 57.311L64.4453 56.7294C64.8968 56.6438 65.0907 56.2779 65.0907 55.912C65.0915 55.374 64.7038 54.7706 64.1222 54.7706Z" fill="#7CC788"/>
<path d="M77.0797 54.7706C76.9941 54.7706 74.3891 55.6535 74.3891 55.6535L74.4966 53.2424C74.4756 52.6398 74.0232 52.3604 73.5071 52.3604C72.9901 52.3604 72.5378 52.6398 72.5168 53.2424L72.6242 55.6325C72.6242 55.6325 70.0193 54.7715 69.9546 54.7715C69.3739 54.7715 68.9434 55.3094 68.9434 55.8046C68.9434 56.2569 69.1372 56.6438 69.5677 56.7302L71.957 57.4193L70.4498 59.5282C70.3214 59.6793 70.2131 59.8732 70.2131 60.1098C70.2131 60.7124 70.9458 61.0783 71.3763 61.0783C71.6339 61.0783 71.8496 61.0137 72.0217 60.7342L73.5071 58.4951L74.9707 60.7124C75.1856 61.0347 75.4659 61.0783 75.6807 61.0783C76.2195 61.0783 76.8003 60.6688 76.8003 60.0662C76.8003 59.8723 76.7356 59.6575 76.6492 59.5501L75.0782 57.311L77.4028 56.7294C77.8552 56.6438 78.049 56.2779 78.049 55.912C78.049 55.374 77.6613 54.7706 77.0797 54.7706Z" fill="#7CC788"/>
<path d="M90.0386 54.7706C89.9521 54.7706 87.348 55.6535 87.348 55.6535L87.4554 53.2424C87.4336 52.6398 86.9821 52.3604 86.4651 52.3604C85.949 52.3604 85.4966 52.6398 85.4748 53.2424L85.5822 55.6325C85.5822 55.6325 82.9781 54.7715 82.9135 54.7715C82.3319 54.7715 81.9014 55.3094 81.9014 55.8046C81.9014 56.2569 82.0952 56.6438 82.5258 56.7302L84.9151 57.4193L83.4086 59.5282C83.2794 59.6793 83.172 59.8732 83.172 60.1098C83.172 60.7124 83.9038 61.0783 84.3343 61.0783C84.5928 61.0783 84.8076 61.0137 84.9797 60.7342L86.4651 58.4951L87.9287 60.7124C88.1444 61.0347 88.4239 61.0783 88.6387 61.0783C89.1775 61.0783 89.7583 60.6688 89.7583 60.0662C89.7583 59.8723 89.6936 59.6575 89.6072 59.5501L88.0362 57.311L90.3608 56.7294C90.8132 56.6438 91.007 56.2779 91.007 55.912C91.007 55.374 90.6193 54.7706 90.0386 54.7706Z" fill="#7CC788"/>
</svg>
