<svg width="124" height="101" viewBox="0 0 124 101" fill="none" xmlns="http://www.w3.org/2000/svg">
<path d="M51.8983 4.41175L1.41333 85.8667C-2.43567 92.0777 2.03031 100.102 9.33832 100.102H114.231C121.681 100.102 126.122 91.7947 121.984 85.5997L67.5753 4.14475C63.8083 -1.49525 55.4713 -1.35325 51.8983 4.41175Z" fill="#DE5753"/>
<path opacity="0.4" d="M51.8983 4.41175L1.41333 85.8667C-2.43567 92.0777 2.03031 100.102 9.33832 100.102H114.231C121.681 100.102 126.122 91.7947 121.984 85.5997L67.5753 4.14475C63.8083 -1.49525 55.4713 -1.35325 51.8983 4.41175Z" fill="black"/>
<path d="M57.0721 10.2698L9.9741 86.2588C8.5741 88.5178 10.1981 91.4358 12.8561 91.4358H110.711C113.42 91.4358 115.035 88.4148 113.53 86.1618L62.7721 10.1718C61.4041 8.12179 58.3721 8.17379 57.0721 10.2698Z" fill="#DE5753"/>
<path opacity="0.3" d="M77.3951 32.0627L26.6061 59.4257L12.9121 81.5217L85.7431 44.5607L77.3951 32.0627Z" fill="white"/>
<path d="M56.3604 80.4258C55.2764 79.3668 54.7354 78.0588 54.7354 76.5048C54.7354 74.9498 55.2764 73.6548 56.3604 72.6188C57.4434 71.5828 58.8084 71.0648 60.4584 71.0648C62.0604 71.0648 63.3913 71.5838 64.4503 72.6188C65.5103 73.6558 66.0404 74.9508 66.0404 76.5048C66.0404 78.0588 65.5113 79.3668 64.4503 80.4258C63.3903 81.4858 62.0594 82.0158 60.4584 82.0158C58.8084 82.0158 57.4434 81.4868 56.3604 80.4258ZM55.2294 32.0618H65.6864L63.9203 65.1288H56.9254L55.2294 32.0618Z" fill="white"/>
</svg>
